<svg xmlns="http://www.w3.org/2000/svg" xmlns:xlink="http://www.w3.org/1999/xlink" version="1.1" width="1000" height="1000" viewBox="0 0 1000 1000" xml:space="preserve">
<desc>Created with Fabric.js 3.5.0</desc>
<defs>
</defs>
<rect x="0" y="0" width="100%" height="100%" fill="rgba(255,255,255,0)"/>
<g transform="matrix(6.7917 0 0 7.2359 500.006 808.975)" id="509665">
<g style="" vector-effect="non-scaling-stroke">
		<g transform="matrix(1 0 0 1 0 0)">
<path style="stroke: rgb(0,0,0); stroke-opacity: 0; stroke-width: 0.3; stroke-dasharray: none; stroke-linecap: butt; stroke-dashoffset: 0; stroke-linejoin: miter; stroke-miterlimit: 4; is-custom-font: none; font-file-url: none; fill: rgb(255,0,0); fill-opacity: 0; fill-rule: nonzero; opacity: 1;" transform=" translate(-250, -250)" d="M 0 500 L 500 500 L 500 0 L 0 0 L 0 500 M 244 164 C 252.62 165.56 250.75 156.01 260 158 C 269.25 159.99 271.43 156.01 281.67 158.33 C 291.91 160.65 303.28 166.1 310 175 C 302.2 176.11 294.84 173.52 287 175 C 279.16 176.48 272.01 172.16 264 175 C 255.99 177.84 251.97 169.84 247.97 168.03 C 243.97 166.23 238.66 179.66 232 175 C 225.34 170.34 225.68 166.76 228.77 160.77 C 231.86 154.78 243.8 157.16 244 164 M 229 183 C 230.19 181.81 230.64 179.54 231 178 C 242.94 177.33 255.08 178.9 267 178 C 278.92 177.1 291.16 179.72 303 178 C 314.84 176.28 319.83 186.62 320 196 C 314.82 199.33 304.46 194.66 298 196 C 291.54 197.34 281.92 195.58 275 196 C 268.08 196.42 258.89 196.21 252 196 C 245.11 195.79 235.28 197.88 231 194 C 228.57 191.79 224.41 185.14 221.7 191.7 C 218.99 198.26 213.6 195.31 208 196 C 203.89 189.68 203.9 184.35 208 178 C 218.4 172.21 221.56 189.22 229 183 M 177 208 C 177.4 196.54 197.45 195.39 197.77 207.23 C 198.09 219.07 178.32 218.75 177 208 M 252 205 C 256.91 201.47 251.88 198.6 261 199 C 270.12 199.4 281.99 198.72 291 199 C 300.01 199.28 298.91 198.86 306 199 C 313.09 199.14 315.35 198.9 322 199 C 322 204.67 322 210.33 322 216 C 304.33 216 286.67 216 269 216 C 263.01 216 252.69 218.34 252 210 C 245.23 211.04 239.97 217.47 232 216 C 224.03 214.53 213.42 218.52 214.01 206.99 C 214.59 195.46 224.81 201.32 233 199 C 241.19 196.68 245.55 206.64 252 205 M 225 226 C 225.43 224.84 227.16 221.79 228 221 C 235.02 214.44 254.03 221.46 263 219 C 271.97 216.54 274.8 219.59 282 219 C 289.2 218.41 294.98 218.11 301 219 C 307.02 219.89 315.38 216.03 320 219 C 322.61 220.68 315.2 235.88 312 237 C 305.48 239.29 297.04 236.2 290 237 C 282.96 237.8 274.19 237 267 237 C 261.03 237 253.84 237.61 248 237 C 242.16 236.39 233.66 238.98 229 236 C 226.68 234.52 226.67 229.93 222.97 230.03 C 219.27 230.13 217.85 233.72 217 237 C 210.78 238.87 201.01 235.47 201.08 227.92 C 201.14 220.38 210.82 217.22 217 219 C 216.75 221.83 220 223.3 220 226 C 221.67 226 223.33 226 225 226 M 218 246 C 219.62 244.84 219.34 240.93 222 240 C 229.8 237.26 243.65 240 252 240 C 257.93 240 266.32 239.91 272 240 C 277.68 240.09 287.22 239.75 292 240 C 296.78 240.25 308.96 238.96 309 241 C 309.09 245.53 299.56 248.43 296.3 251.3 C 293.05 254.17 282.67 256.68 278 257 C 271.07 257.47 263.94 257 257 257 C 248.67 257 240.33 257 232 257 C 225.45 257 222.28 258.7 218.25 252.75 C 214.21 246.81 211.87 255.07 207.92 256.92 C 203.96 258.76 195.11 255.44 190 257 C 184.89 258.56 180.14 254.16 178 250 C 179.86 237.76 187.19 241.86 197 240 C 206.81 238.14 210.8 246.25 218 246 M 131 276 C 131.84 279.93 130.64 283.33 126 282 C 126 288 126 294 126 300 C 114.61 302.95 120.36 288.54 119 282 C 114.56 283.46 114.72 279.07 115 276 C 120.33 276 125.67 276 131 276 M 155 300 C 151.47 300.21 148 300.59 147 297 C 142.53 296.81 140.48 301.96 135 300 C 137 292.01 139 284.02 141 276 C 154.67 273.21 151.85 291.53 155 300 M 170 284 C 171.04 279.85 171.14 273.77 178 276 C 178 284 178 292 178 300 C 172.32 301.64 169.75 297.98 169 293 C 168.12 297.52 167.56 301.92 161 300 C 161 292 161 284 161 276 C 166.84 274.17 169.49 279.22 170 284 M 193 295 C 196.98 294.46 201.61 294.65 200 300 C 194.67 300 189.33 300 184 300 C 183.06 292.72 190.44 288.42 192 282 C 187.22 283.03 183.43 281.51 185 276 C 189.52 275.77 202.72 274.31 201 281 C 199.27 287.7 194.67 288.65 193 295 M 214 276 C 214 284 214 292 214 300 C 205.05 302.83 207 293.81 207 288 C 207 282.19 205.01 273.22 214 276 M 228 276 C 228 282.33 228 288.67 228 295 C 231.98 294.46 236.61 294.65 235 300 C 230.33 300 225.67 300 221 300 C 223.31 292.22 215.08 273.87 228 276 M 260 293 C 261.48 298.59 258.58 301.41 253 300 C 253 292 253 284 253 276 C 258.61 276.62 268.19 274.03 269.97 281.03 C 271.75 288.03 268.3 295.49 260 293 M 289 276 C 291.39 283.89 293.39 291.88 295 300 C 291.87 299.91 287.7 301.07 287 297 C 282.11 296.48 280.6 302.02 275 300 C 276.61 291.92 278.6 283.89 281 276 C 283.67 276 286.33 276 289 276 M 315 292 C 316.37 294.69 317.65 297.31 319 300 C 314.82 300.38 308.91 300.64 309 295 C 308.52 299.33 305.89 301.04 301 300 C 301 292 301 284 301 276 C 312.14 272.07 324.51 282.16 315 292 M 332 289 C 334.69 284 332.16 272.92 342 276 C 341.74 284.35 338.03 291.81 337 300 C 334 300 331 300 328 300 C 326.81 291.89 323.93 284.21 323 276 C 331.99 273.2 331.55 283.02 332 289 M 363 276 C 364.98 282.21 359.78 282.69 355 282 C 353.42 287.01 358.86 286.02 362 286 C 365.17 294.13 352.96 287.76 355 295 C 359.03 294.76 364.8 294.02 363 300 C 358 300 353 300 348 300 C 348 292 348 284 348 276 C 353 276 358 276 363 276 M 377 295 C 380.98 294.46 385.61 294.65 384 300 C 378.67 300 373.33 300 368 300 C 367.06 292.72 374.44 288.42 376 282 C 371.22 283.03 367.43 281.51 369 276 C 373.52 275.77 386.72 274.31 385 281 C 383.27 287.7 378.67 288.65 377 295 Z" stroke-linecap="round"/>
</g>
		<g transform="matrix(1 0 0 1 18.3233 -83.3315)">
<path style="stroke: rgb(50,156,209); stroke-opacity: 0.94; stroke-width: 0.3; stroke-dasharray: none; stroke-linecap: butt; stroke-dashoffset: 0; stroke-linejoin: miter; stroke-miterlimit: 4; is-custom-font: none; font-file-url: none; fill: rgb(255,0,0); fill-opacity: 0; fill-rule: nonzero; opacity: 1;" transform=" translate(-268.3233, -166.6685)" d="M 244 164 C 243.8 157.16 231.86 154.78 228.77 160.77 C 225.68 166.76 225.34 170.34 232 175 C 238.66 179.66 243.97 166.23 247.97 168.03 C 251.97 169.84 255.99 177.84 264 175 C 272.01 172.16 279.16 176.48 287 175 C 294.84 173.52 302.2 176.11 310 175 C 303.28 166.1 291.91 160.65 281.67 158.33 C 271.43 156.01 269.25 159.99 260 158 C 250.75 156.01 252.62 165.56 244 164 Z" stroke-linecap="round"/>
</g>
		<g transform="matrix(1 0 0 1 -25.0394 -63.5692)">
<path style="stroke: rgb(121,162,196); stroke-opacity: 0.91; stroke-width: 0.3; stroke-dasharray: none; stroke-linecap: butt; stroke-dashoffset: 0; stroke-linejoin: miter; stroke-miterlimit: 4; is-custom-font: none; font-file-url: none; fill: rgb(255,0,0); fill-opacity: 0; fill-rule: nonzero; opacity: 1;" transform=" translate(-224.9606, -186.4308)" d="M 231 194 C 234.51 196.22 240.91 195 245 195 C 239.34 193.47 234.12 185.29 229 183 C 221.56 189.22 218.4 172.21 208 178 C 203.9 184.35 203.89 189.68 208 196 C 213.6 195.31 218.99 198.26 221.7 191.7 C 224.41 185.14 228.57 191.79 231 194 Z" stroke-linecap="round"/>
</g>
		<g transform="matrix(1 0 0 1 24.5 -63.0971)">
<path style="stroke: rgb(67,157,206); stroke-opacity: 0.96; stroke-width: 0.3; stroke-dasharray: none; stroke-linecap: butt; stroke-dashoffset: 0; stroke-linejoin: miter; stroke-miterlimit: 4; is-custom-font: none; font-file-url: none; fill: rgb(255,0,0); fill-opacity: 0; fill-rule: nonzero; opacity: 1;" transform=" translate(-274.5, -186.903)" d="M 229 183 C 234.12 185.29 239.34 193.47 245 195 C 269.83 195 295.99 194.17 320 196 C 319.83 186.62 314.84 176.28 303 178 C 291.16 179.72 278.92 177.1 267 178 C 255.08 178.9 242.94 177.33 231 178 C 230.64 179.54 230.19 181.81 229 183 Z" stroke-linecap="round"/>
</g>
		<g transform="matrix(1 0 0 1 25.5 -54.3882)">
<path style="stroke: rgb(82,158,203); stroke-opacity: 0.5; stroke-width: 0.3; stroke-dasharray: none; stroke-linecap: butt; stroke-dashoffset: 0; stroke-linejoin: miter; stroke-miterlimit: 4; is-custom-font: none; font-file-url: none; fill: rgb(255,0,0); fill-opacity: 0; fill-rule: nonzero; opacity: 1;" transform=" translate(-275.5, -195.6118)" d="M 320 196 C 295.99 194.17 269.83 195 245 195 C 240.91 195 234.51 196.22 231 194 C 235.28 197.88 245.11 195.79 252 196 C 258.89 196.21 268.08 196.42 275 196 C 281.92 195.58 291.54 197.34 298 196 C 304.46 194.66 314.82 199.33 320 196 Z" stroke-linecap="round"/>
</g>
		<g transform="matrix(1 0 0 1 -62.6131 -42.5251)">
<path style="stroke: rgb(180,167,186); stroke-opacity: 0.93; stroke-width: 0.3; stroke-dasharray: none; stroke-linecap: butt; stroke-dashoffset: 0; stroke-linejoin: miter; stroke-miterlimit: 4; is-custom-font: none; font-file-url: none; fill: rgb(255,0,0); fill-opacity: 0; fill-rule: nonzero; opacity: 1;" transform=" translate(-187.3869, -207.4749)" d="M 177 208 C 178.32 218.75 198.09 219.07 197.77 207.23 C 197.45 195.39 177.4 196.54 177 208 Z" stroke-linecap="round"/>
</g>
		<g transform="matrix(1 0 0 1 -8.5068 -42.525)">
<path style="stroke: rgb(135,163,194); stroke-opacity: 0.96; stroke-width: 0.3; stroke-dasharray: none; stroke-linecap: butt; stroke-dashoffset: 0; stroke-linejoin: miter; stroke-miterlimit: 4; is-custom-font: none; font-file-url: none; fill: rgb(255,0,0); fill-opacity: 0; fill-rule: nonzero; opacity: 1;" transform=" translate(-241.4932, -207.475)" d="M 269 216 C 263.11 214.14 258.77 205.71 252 205 C 245.55 206.64 241.19 196.68 233 199 C 224.81 201.32 214.59 195.46 214.01 206.99 C 213.42 218.52 224.03 214.53 232 216 C 239.97 217.47 245.23 211.04 252 210 C 252.69 218.34 263.01 216 269 216 Z" stroke-linecap="round"/>
</g>
		<g transform="matrix(1 0 0 1 37 -42.5349)">
<path style="stroke: rgb(81,158,204); stroke-opacity: 0.97; stroke-width: 0.3; stroke-dasharray: none; stroke-linecap: butt; stroke-dashoffset: 0; stroke-linejoin: miter; stroke-miterlimit: 4; is-custom-font: none; font-file-url: none; fill: rgb(255,0,0); fill-opacity: 0; fill-rule: nonzero; opacity: 1;" transform=" translate(-287, -207.4651)" d="M 252 205 C 258.77 205.71 263.11 214.14 269 216 C 286.67 216 304.33 216 322 216 C 322 210.33 322 204.67 322 199 C 315.35 198.9 313.09 199.14 306 199 C 298.91 198.86 300.01 199.28 291 199 C 281.99 198.72 270.12 199.4 261 199 C 251.88 198.6 256.91 201.47 252 205 Z" stroke-linecap="round"/>
</g>
		<g transform="matrix(1 0 0 1 -31.4602 -21.9902)">
<path style="stroke: rgb(185,167,185); stroke-opacity: 0.88; stroke-width: 0.3; stroke-dasharray: none; stroke-linecap: butt; stroke-dashoffset: 0; stroke-linejoin: miter; stroke-miterlimit: 4; is-custom-font: none; font-file-url: none; fill: rgb(255,0,0); fill-opacity: 0; fill-rule: nonzero; opacity: 1;" transform=" translate(-218.5398, -228.0099)" d="M 229 236 C 230.7 236.68 234.14 236 236 236 C 231.79 234.86 228.81 228.34 224 228 C 223.98 227.03 227.01 226.78 225 226 C 223.33 226 221.67 226 220 226 C 220 223.3 216.75 221.83 217 219 C 210.82 217.22 201.14 220.38 201.08 227.92 C 201.01 235.47 210.78 238.87 217 237 C 217.85 233.72 219.27 230.13 222.97 230.03 C 226.67 229.93 226.68 234.52 229 236 Z" stroke-linecap="round"/>
</g>
		<g transform="matrix(1 0 0 1 24 -30.5716)">
<path style="stroke: rgb(115,162,197); stroke-opacity: 0.24; stroke-width: 0.3; stroke-dasharray: none; stroke-linecap: butt; stroke-dashoffset: 0; stroke-linejoin: miter; stroke-miterlimit: 4; is-custom-font: none; font-file-url: none; fill: rgb(255,0,0); fill-opacity: 0; fill-rule: nonzero; opacity: 1;" transform=" translate(-274, -219.4284)" d="M 228 221 C 233.43 217.38 247.47 220 254 220 C 275.83 220 298.99 220.83 320 219 C 315.38 216.03 307.02 219.89 301 219 C 294.98 218.11 289.2 218.41 282 219 C 274.8 219.59 271.97 216.54 263 219 C 254.03 221.46 235.02 214.44 228 221 Z" stroke-linecap="round"/>
</g>
		<g transform="matrix(1 0 0 1 37.2734 -22)">
<path style="stroke: rgb(108,161,199); stroke-opacity: 0.98; stroke-width: 0.3; stroke-dasharray: none; stroke-linecap: butt; stroke-dashoffset: 0; stroke-linejoin: miter; stroke-miterlimit: 4; is-custom-font: none; font-file-url: none; fill: rgb(255,0,0); fill-opacity: 0; fill-rule: nonzero; opacity: 1;" transform=" translate(-287.2734, -228)" d="M 254 220 C 261.66 222.42 268.17 233.88 276 236 C 287.83 236 300.99 235.17 312 237 C 315.2 235.88 322.61 220.68 320 219 C 298.99 220.83 275.83 220 254 220 Z" stroke-linecap="round"/>
</g>
		<g transform="matrix(1 0 0 1 -0.0001 -22.4582)">
<path style="stroke: rgb(152,165,191); stroke-width: 0.3; stroke-dasharray: none; stroke-linecap: butt; stroke-dashoffset: 0; stroke-linejoin: miter; stroke-miterlimit: 4; is-custom-font: none; font-file-url: none; fill: rgb(255,0,0); fill-opacity: 0; fill-rule: nonzero; opacity: 1;" transform=" translate(-250, -227.5418)" d="M 228 221 C 227.16 221.79 225.43 224.84 225 226 C 227.01 226.78 223.98 227.03 224 228 C 228.81 228.34 231.79 234.86 236 236 C 246.33 236 256.67 236 267 236 C 270 236 273 236 276 236 C 268.17 233.88 261.66 222.42 254 220 C 247.47 220 233.43 217.38 228 221 Z" stroke-linecap="round"/>
</g>
		<g transform="matrix(1 0 0 1 -2 -13.2672)">
<path style="stroke: rgb(162,165,189); stroke-opacity: 0.5; stroke-width: 0.3; stroke-dasharray: none; stroke-linecap: butt; stroke-dashoffset: 0; stroke-linejoin: miter; stroke-miterlimit: 4; is-custom-font: none; font-file-url: none; fill: rgb(255,0,0); fill-opacity: 0; fill-rule: nonzero; opacity: 1;" transform=" translate(-248, -236.7328)" d="M 267 237 C 266.96 237 267 236 267 236 C 256.67 236 246.33 236 236 236 C 234.14 236 230.7 236.68 229 236 C 233.66 238.98 242.16 236.39 248 237 C 253.84 237.61 261.03 237 267 237 Z" stroke-linecap="round"/>
</g>
		<g transform="matrix(1 0 0 1 39.4911 -13.163)">
<path style="stroke: rgb(123,162,196); stroke-opacity: 0.5; stroke-width: 0.3; stroke-dasharray: none; stroke-linecap: butt; stroke-dashoffset: 0; stroke-linejoin: miter; stroke-miterlimit: 4; is-custom-font: none; font-file-url: none; fill: rgb(255,0,0); fill-opacity: 0; fill-rule: nonzero; opacity: 1;" transform=" translate(-289.4911, -236.837)" d="M 267 237 C 274.19 237 282.96 237.8 290 237 C 297.04 236.2 305.48 239.29 312 237 C 300.99 235.17 287.83 236 276 236 C 273 236 270 236 267 236 C 267 236 266.96 237 267 237 Z" stroke-linecap="round"/>
</g>
		<g transform="matrix(1 0 0 1 -45 -1.3923)">
<path style="stroke: rgb(228,171,178); stroke-opacity: 0.95; stroke-width: 0.3; stroke-dasharray: none; stroke-linecap: butt; stroke-dashoffset: 0; stroke-linejoin: miter; stroke-miterlimit: 4; is-custom-font: none; font-file-url: none; fill: rgb(255,0,0); fill-opacity: 0; fill-rule: nonzero; opacity: 1;" transform=" translate(-205, -248.6077)" d="M 232 257 C 229.73 256.39 218.36 248.55 218 246 C 210.8 246.25 206.81 238.14 197 240 C 187.19 241.86 179.86 237.76 178 250 C 180.14 254.16 184.89 258.56 190 257 C 195.11 255.44 203.96 258.76 207.92 256.92 C 211.87 255.07 214.21 246.81 218.25 252.75 C 222.28 258.7 225.45 257 232 257 Z" stroke-linecap="round"/>
</g>
		<g transform="matrix(1 0 0 1 -12.5 -1.5)">
<path style="stroke: rgb(194,168,184); stroke-opacity: 0.99; stroke-width: 0.3; stroke-dasharray: none; stroke-linecap: butt; stroke-dashoffset: 0; stroke-linejoin: miter; stroke-miterlimit: 4; is-custom-font: none; font-file-url: none; fill: rgb(255,0,0); fill-opacity: 0; fill-rule: nonzero; opacity: 1;" transform=" translate(-237.5, -248.5)" d="M 218 246 C 218.36 248.55 229.73 256.39 232 257 C 240.33 257 248.67 257 257 257 C 249.38 254.59 242.88 243.14 235 241 C 230.83 241 225.34 241.82 222 240 C 219.34 240.93 219.62 244.84 218 246 Z" stroke-linecap="round"/>
</g>
		<g transform="matrix(1 0 0 1 -13 -10.0168)">
<path style="stroke: rgb(179,167,187); stroke-opacity: 0.75; stroke-width: 0.3; stroke-dasharray: none; stroke-linecap: butt; stroke-dashoffset: 0; stroke-linejoin: miter; stroke-miterlimit: 4; is-custom-font: none; font-file-url: none; fill: rgb(255,0,0); fill-opacity: 0; fill-rule: nonzero; opacity: 1;" transform=" translate(-237, -239.9832)" d="M 235 241 C 240.67 241 246.33 241 252 241 C 251.9 240.98 252 240 252 240 C 243.65 240 229.8 237.26 222 240 C 225.34 241.82 230.83 241 235 241 Z" stroke-linecap="round"/>
</g>
		<g transform="matrix(1 0 0 1 30.4778 -9.1306)">
<path style="stroke: rgb(137,163,194); stroke-opacity: 0.74; stroke-width: 0.3; stroke-dasharray: none; stroke-linecap: butt; stroke-dashoffset: 0; stroke-linejoin: miter; stroke-miterlimit: 4; is-custom-font: none; font-file-url: none; fill: rgb(255,0,0); fill-opacity: 0; fill-rule: nonzero; opacity: 1;" transform=" translate(-280.4778, -240.8694)" d="M 252 241 C 254 241 256 241 258 241 C 266.08 241 275.01 241.98 283 241 C 290.99 240.02 301.41 243.48 309 241 C 308.96 238.96 296.78 240.25 292 240 C 287.22 239.75 277.68 240.09 272 240 C 266.32 239.91 257.93 240 252 240 C 252 240 251.9 240.98 252 241 Z" stroke-linecap="round"/>
</g>
		<g transform="matrix(1 0 0 1 6.5 -0.8956)">
<path style="stroke: rgb(171,166,188); stroke-width: 0.3; stroke-dasharray: none; stroke-linecap: butt; stroke-dashoffset: 0; stroke-linejoin: miter; stroke-miterlimit: 4; is-custom-font: none; font-file-url: none; fill: rgb(255,0,0); fill-opacity: 0; fill-rule: nonzero; opacity: 1;" transform=" translate(-256.5, -249.1044)" d="M 257 257 C 263.94 257 271.07 257.47 278 257 C 273 252.96 264.78 242.91 258 241 C 256 241 254 241 252 241 C 246.33 241 240.67 241 235 241 C 242.88 243.14 249.38 254.59 257 257 Z" stroke-linecap="round"/>
</g>
		<g transform="matrix(1 0 0 1 33.5003 -1.09)">
<path style="stroke: rgb(142,164,193); stroke-opacity: 0.96; stroke-width: 0.3; stroke-dasharray: none; stroke-linecap: butt; stroke-dashoffset: 0; stroke-linejoin: miter; stroke-miterlimit: 4; is-custom-font: none; font-file-url: none; fill: rgb(255,0,0); fill-opacity: 0; fill-rule: nonzero; opacity: 1;" transform=" translate(-283.5003, -248.9101)" d="M 278 257 C 282.67 256.68 293.05 254.17 296.3 251.3 C 299.56 248.43 309.09 245.53 309 241 C 301.41 243.48 290.99 240.02 283 241 C 275.01 241.98 266.08 241 258 241 C 264.78 242.91 273 252.96 278 257 Z" stroke-linecap="round"/>
</g>
		<g transform="matrix(1 0 0 1 -126.9357 38.1965)">
<path style="stroke: rgb(216,216,216); stroke-opacity: 0.84; stroke-width: 0.3; stroke-dasharray: none; stroke-linecap: butt; stroke-dashoffset: 0; stroke-linejoin: miter; stroke-miterlimit: 4; is-custom-font: none; font-file-url: none; fill: rgb(255,0,0); fill-opacity: 0; fill-rule: nonzero; opacity: 1;" transform=" translate(-123.0643, -288.1965)" d="M 131 276 C 125.67 276 120.33 276 115 276 C 114.72 279.07 114.56 283.46 119 282 C 120.36 288.54 114.61 302.95 126 300 C 126 294 126 288 126 282 C 130.64 283.33 131.84 279.93 131 276 Z" stroke-linecap="round"/>
</g>
		<g transform="matrix(1 0 0 1 -105 38.0798)">
<path style="stroke: rgb(211,211,211); stroke-opacity: 0.84; stroke-width: 0.3; stroke-dasharray: none; stroke-linecap: butt; stroke-dashoffset: 0; stroke-linejoin: miter; stroke-miterlimit: 4; is-custom-font: none; font-file-url: none; fill: rgb(255,0,0); fill-opacity: 0; fill-rule: nonzero; opacity: 1;" transform=" translate(-145, -288.0798)" d="M 155 300 C 151.85 291.53 154.67 273.21 141 276 C 139 284.02 137 292.01 135 300 C 140.48 301.96 142.53 296.81 147 297 C 148 300.59 151.47 300.21 155 300 Z" stroke-linecap="round"/>
</g>
		<g transform="matrix(1 0 0 1 -80.5 37.9924)">
<path style="stroke: rgb(217,217,217); stroke-opacity: 0.84; stroke-width: 0.3; stroke-dasharray: none; stroke-linecap: butt; stroke-dashoffset: 0; stroke-linejoin: miter; stroke-miterlimit: 4; is-custom-font: none; font-file-url: none; fill: rgb(255,0,0); fill-opacity: 0; fill-rule: nonzero; opacity: 1;" transform=" translate(-169.5, -287.9924)" d="M 170 284 C 169.49 279.22 166.84 274.17 161 276 C 161 284 161 292 161 300 C 167.56 301.92 168.12 297.52 169 293 C 169.75 297.98 172.32 301.64 178 300 C 178 292 178 284 178 276 C 171.14 273.77 171.04 279.85 170 284 Z" stroke-linecap="round"/>
</g>
		<g transform="matrix(1 0 0 1 -57.4644 37.8537)">
<path style="stroke: rgb(216,216,216); stroke-opacity: 0.81; stroke-width: 0.3; stroke-dasharray: none; stroke-linecap: butt; stroke-dashoffset: 0; stroke-linejoin: miter; stroke-miterlimit: 4; is-custom-font: none; font-file-url: none; fill: rgb(255,0,0); fill-opacity: 0; fill-rule: nonzero; opacity: 1;" transform=" translate(-192.5356, -287.8537)" d="M 193 295 C 194.67 288.65 199.27 287.7 201 281 C 202.72 274.31 189.52 275.77 185 276 C 183.43 281.51 187.22 283.03 192 282 C 190.44 288.42 183.06 292.72 184 300 C 189.33 300 194.67 300 200 300 C 201.61 294.65 196.98 294.46 193 295 Z" stroke-linecap="round"/>
</g>
		<g transform="matrix(1 0 0 1 -39.5937 38.0073)">
<path style="stroke: rgb(216,216,216); stroke-opacity: 0.87; stroke-width: 0.3; stroke-dasharray: none; stroke-linecap: butt; stroke-dashoffset: 0; stroke-linejoin: miter; stroke-miterlimit: 4; is-custom-font: none; font-file-url: none; fill: rgb(255,0,0); fill-opacity: 0; fill-rule: nonzero; opacity: 1;" transform=" translate(-210.4063, -288.0074)" d="M 214 276 C 205.01 273.22 207 282.19 207 288 C 207 293.81 205.05 302.83 214 300 C 214 292 214 284 214 276 Z" stroke-linecap="round"/>
</g>
		<g transform="matrix(1 0 0 1 -22.0816 37.9146)">
<path style="stroke: rgb(217,217,217); stroke-opacity: 0.88; stroke-width: 0.3; stroke-dasharray: none; stroke-linecap: butt; stroke-dashoffset: 0; stroke-linejoin: miter; stroke-miterlimit: 4; is-custom-font: none; font-file-url: none; fill: rgb(255,0,0); fill-opacity: 0; fill-rule: nonzero; opacity: 1;" transform=" translate(-227.9184, -287.9146)" d="M 228 276 C 215.08 273.87 223.31 292.22 221 300 C 225.67 300 230.33 300 235 300 C 236.61 294.65 231.98 294.46 228 295 C 228 288.67 228 282.33 228 276 Z" stroke-linecap="round"/>
</g>
		<g transform="matrix(1 0 0 1 11.7131 38.1798)">
<path style="stroke: rgb(216,216,216); stroke-opacity: 0.87; stroke-width: 0.3; stroke-dasharray: none; stroke-linecap: butt; stroke-dashoffset: 0; stroke-linejoin: miter; stroke-miterlimit: 4; is-custom-font: none; font-file-url: none; fill: rgb(255,0,0); fill-opacity: 0; fill-rule: nonzero; opacity: 1;" transform=" translate(-261.7131, -288.1798)" d="M 260 293 C 268.3 295.49 271.75 288.03 269.97 281.03 C 268.19 274.03 258.61 276.62 253 276 C 253 284 253 292 253 300 C 258.58 301.41 261.48 298.59 260 293 M 263 282 C 263.16 284.31 263.45 288.34 260 288 C 260.12 285.54 258.92 281.02 263 282 Z" stroke-linecap="round"/>
</g>
		<g transform="matrix(1 0 0 1 35 38.2226)">
<path style="stroke: rgb(211,211,211); stroke-opacity: 0.84; stroke-width: 0.3; stroke-dasharray: none; stroke-linecap: butt; stroke-dashoffset: 0; stroke-linejoin: miter; stroke-miterlimit: 4; is-custom-font: none; font-file-url: none; fill: rgb(255,0,0); fill-opacity: 0; fill-rule: nonzero; opacity: 1;" transform=" translate(-285, -288.2226)" d="M 289 276 C 286.33 276 283.67 276 281 276 C 278.6 283.89 276.61 291.92 275 300 C 280.6 302.02 282.11 296.48 287 297 C 287.7 301.07 291.87 299.91 295 300 C 293.39 291.88 291.39 283.89 289 276 M 286 284 C 287.56 290.97 280.73 285.19 286 284 Z" stroke-linecap="round"/>
</g>
		<g transform="matrix(1 0 0 1 60 37.7128)">
<path style="stroke: rgb(216,216,216); stroke-opacity: 0.87; stroke-width: 0.3; stroke-dasharray: none; stroke-linecap: butt; stroke-dashoffset: 0; stroke-linejoin: miter; stroke-miterlimit: 4; is-custom-font: none; font-file-url: none; fill: rgb(255,0,0); fill-opacity: 0; fill-rule: nonzero; opacity: 1;" transform=" translate(-310, -287.7127)" d="M 315 292 C 324.51 282.16 312.14 272.07 301 276 C 301 284 301 292 301 300 C 305.89 301.04 308.52 299.33 309 295 C 308.91 300.64 314.82 300.38 319 300 C 317.65 297.31 316.37 294.69 315 292 M 310 282 C 310.3 282.75 310.31 286.26 310 287 C 309.46 288.27 308.17 287.87 307 288 C 306.58 285.9 306.88 279.15 310 282 Z" stroke-linecap="round"/>
</g>
		<g transform="matrix(1 0 0 1 82.5 37.734)">
<path style="stroke: rgb(216,216,216); stroke-opacity: 0.83; stroke-width: 0.3; stroke-dasharray: none; stroke-linecap: butt; stroke-dashoffset: 0; stroke-linejoin: miter; stroke-miterlimit: 4; is-custom-font: none; font-file-url: none; fill: rgb(255,0,0); fill-opacity: 0; fill-rule: nonzero; opacity: 1;" transform=" translate(-332.5, -287.7339)" d="M 332 289 C 331.55 283.02 331.99 273.2 323 276 C 323.93 284.21 326.81 291.89 328 300 C 331 300 334 300 337 300 C 338.03 291.81 341.74 284.35 342 276 C 332.16 272.92 334.69 284 332 289 Z" stroke-linecap="round"/>
</g>
		<g transform="matrix(1 0 0 1 105.716 38)">
<path style="stroke: rgb(216,216,216); stroke-opacity: 0.84; stroke-width: 0.3; stroke-dasharray: none; stroke-linecap: butt; stroke-dashoffset: 0; stroke-linejoin: miter; stroke-miterlimit: 4; is-custom-font: none; font-file-url: none; fill: rgb(255,0,0); fill-opacity: 0; fill-rule: nonzero; opacity: 1;" transform=" translate(-355.716, -288)" d="M 363 276 C 358 276 353 276 348 276 C 348 284 348 292 348 300 C 353 300 358 300 363 300 C 364.8 294.02 359.03 294.76 355 295 C 352.96 287.76 365.17 294.13 362 286 C 358.86 286.02 353.42 287.01 355 282 C 359.78 282.69 364.98 282.21 363 276 Z" stroke-linecap="round"/>
</g>
		<g transform="matrix(1 0 0 1 126.5356 37.8537)">
<path style="stroke: rgb(216,216,216); stroke-opacity: 0.81; stroke-width: 0.3; stroke-dasharray: none; stroke-linecap: butt; stroke-dashoffset: 0; stroke-linejoin: miter; stroke-miterlimit: 4; is-custom-font: none; font-file-url: none; fill: rgb(255,0,0); fill-opacity: 0; fill-rule: nonzero; opacity: 1;" transform=" translate(-376.5356, -287.8537)" d="M 377 295 C 378.67 288.65 383.27 287.7 385 281 C 386.72 274.31 373.52 275.77 369 276 C 367.43 281.51 371.22 283.03 376 282 C 374.44 288.42 367.06 292.72 368 300 C 373.33 300 378.67 300 384 300 C 385.61 294.65 380.98 294.46 377 295 Z" stroke-linecap="round"/>
</g>
		<g transform="matrix(1 0 0 1 58.4248 34.6544)">
<path style="stroke: rgb(216,216,216); stroke-opacity: 0.52; stroke-width: 0.3; stroke-dasharray: none; stroke-linecap: butt; stroke-dashoffset: 0; stroke-linejoin: miter; stroke-miterlimit: 4; is-custom-font: none; font-file-url: none; fill: rgb(255,0,0); fill-opacity: 0; fill-rule: nonzero; opacity: 1;" transform=" translate(-308.4249, -284.6544)" d="M 310 287 C 307.18 287.75 306.99 281.28 310 282 C 306.88 279.15 306.58 285.9 307 288 C 308.17 287.87 309.46 288.27 310 287 Z" stroke-linecap="round"/>
</g>
		<g transform="matrix(1 0 0 1 11.5041 34.9416)">
<path style="stroke: rgb(0,0,0); stroke-opacity: 0; stroke-width: 0.3; stroke-dasharray: none; stroke-linecap: butt; stroke-dashoffset: 0; stroke-linejoin: miter; stroke-miterlimit: 4; is-custom-font: none; font-file-url: none; fill: rgb(255,0,0); fill-opacity: 0; fill-rule: nonzero; opacity: 1;" transform=" translate(-261.504, -284.9417)" d="M 263 282 C 258.92 281.02 260.12 285.54 260 288 C 263.45 288.34 263.16 284.31 263 282 Z" stroke-linecap="round"/>
</g>
		<g transform="matrix(1 0 0 1 59.021 34.5023)">
<path style="stroke: rgb(0,0,0); stroke-opacity: 0; stroke-width: 0.3; stroke-dasharray: none; stroke-linecap: butt; stroke-dashoffset: 0; stroke-linejoin: miter; stroke-miterlimit: 4; is-custom-font: none; font-file-url: none; fill: rgb(255,0,0); fill-opacity: 0; fill-rule: nonzero; opacity: 1;" transform=" translate(-309.021, -284.5023)" d="M 310 287 C 310.31 286.26 310.3 282.75 310 282 C 306.99 281.28 307.18 287.75 310 287 Z" stroke-linecap="round"/>
</g>
		<g transform="matrix(1 0 0 1 35.1029 35.6898)">
<path style="stroke: rgb(217,217,217); stroke-opacity: 0.56; stroke-width: 0.3; stroke-dasharray: none; stroke-linecap: butt; stroke-dashoffset: 0; stroke-linejoin: miter; stroke-miterlimit: 4; is-custom-font: none; font-file-url: none; fill: rgb(255,0,0); fill-opacity: 0; fill-rule: nonzero; opacity: 1;" transform=" translate(-285.1029, -285.6898)" d="M 286 284 C 280.73 285.19 287.56 290.97 286 284 Z" stroke-linecap="round"/>
</g>
		<g transform="matrix(1 0 0 1 0 0)">
<path style="stroke: rgb(0,0,0); stroke-width: 1; stroke-dasharray: none; stroke-linecap: butt; stroke-dashoffset: 0; stroke-linejoin: miter; stroke-miterlimit: 4; is-custom-font: none; font-file-url: none; fill: rgb(255,0,0); fill-opacity: 0; fill-rule: nonzero; opacity: 1;" transform=" translate(-250, -250)" d="M 0 500 L 500 500 L 500 0 L 0 0 L 0 500 M 244 164 C 252.62 165.56 250.75 156.01 260 158 C 269.25 159.99 271.43 156.01 281.67 158.33 C 291.91 160.65 303.28 166.1 310 175 C 302.2 176.11 294.84 173.52 287 175 C 279.16 176.48 272.01 172.16 264 175 C 255.99 177.84 251.97 169.84 247.97 168.03 C 243.97 166.23 238.66 179.66 232 175 C 225.34 170.34 225.68 166.76 228.77 160.77 C 231.86 154.78 243.8 157.16 244 164 M 229 183 C 230.19 181.81 230.64 179.54 231 178 C 242.94 177.33 255.08 178.9 267 178 C 278.92 177.1 291.16 179.72 303 178 C 314.84 176.28 319.83 186.62 320 196 C 314.82 199.33 304.46 194.66 298 196 C 291.54 197.34 281.92 195.58 275 196 C 268.08 196.42 258.89 196.21 252 196 C 245.11 195.79 235.28 197.88 231 194 C 228.57 191.79 224.41 185.14 221.7 191.7 C 218.99 198.26 213.6 195.31 208 196 C 203.89 189.68 203.9 184.35 208 178 C 218.4 172.21 221.56 189.22 229 183 M 177 208 C 177.4 196.54 197.45 195.39 197.77 207.23 C 198.09 219.07 178.32 218.75 177 208 M 252 205 C 256.91 201.47 251.88 198.6 261 199 C 270.12 199.4 281.99 198.72 291 199 C 300.01 199.28 298.91 198.86 306 199 C 313.09 199.14 315.35 198.9 322 199 C 322 204.67 322 210.33 322 216 C 304.33 216 286.67 216 269 216 C 263.01 216 252.69 218.34 252 210 C 245.23 211.04 239.97 217.47 232 216 C 224.03 214.53 213.42 218.52 214.01 206.99 C 214.59 195.46 224.81 201.32 233 199 C 241.19 196.68 245.55 206.64 252 205 M 225 226 C 225.43 224.84 227.16 221.79 228 221 C 235.02 214.44 254.03 221.46 263 219 C 271.97 216.54 274.8 219.59 282 219 C 289.2 218.41 294.98 218.11 301 219 C 307.02 219.89 315.38 216.03 320 219 C 322.61 220.68 315.2 235.88 312 237 C 305.48 239.29 297.04 236.2 290 237 C 282.96 237.8 274.19 237 267 237 C 261.03 237 253.84 237.61 248 237 C 242.16 236.39 233.66 238.98 229 236 C 226.68 234.52 226.67 229.93 222.97 230.03 C 219.27 230.13 217.85 233.72 217 237 C 210.78 238.87 201.01 235.47 201.08 227.92 C 201.14 220.38 210.82 217.22 217 219 C 216.75 221.83 220 223.3 220 226 C 221.67 226 223.33 226 225 226 M 218 246 C 219.62 244.84 219.34 240.93 222 240 C 229.8 237.26 243.65 240 252 240 C 257.93 240 266.32 239.91 272 240 C 277.68 240.09 287.22 239.75 292 240 C 296.78 240.25 308.96 238.96 309 241 C 309.09 245.53 299.56 248.43 296.3 251.3 C 293.05 254.17 282.67 256.68 278 257 C 271.07 257.47 263.94 257 257 257 C 248.67 257 240.33 257 232 257 C 225.45 257 222.28 258.7 218.25 252.75 C 214.21 246.81 211.87 255.07 207.92 256.92 C 203.96 258.76 195.11 255.44 190 257 C 184.89 258.56 180.14 254.16 178 250 C 179.86 237.76 187.19 241.86 197 240 C 206.81 238.14 210.8 246.25 218 246 M 131 276 C 131.84 279.93 130.64 283.33 126 282 C 126 288 126 294 126 300 C 114.61 302.95 120.36 288.54 119 282 C 114.56 283.46 114.72 279.07 115 276 C 120.33 276 125.67 276 131 276 M 155 300 C 151.47 300.21 148 300.59 147 297 C 142.53 296.81 140.48 301.96 135 300 C 137 292.01 139 284.02 141 276 C 154.67 273.21 151.85 291.53 155 300 M 170 284 C 171.04 279.85 171.14 273.77 178 276 C 178 284 178 292 178 300 C 172.32 301.64 169.75 297.98 169 293 C 168.12 297.52 167.56 301.92 161 300 C 161 292 161 284 161 276 C 166.84 274.17 169.49 279.22 170 284 M 193 295 C 196.98 294.46 201.61 294.65 200 300 C 194.67 300 189.33 300 184 300 C 183.06 292.72 190.44 288.42 192 282 C 187.22 283.03 183.43 281.51 185 276 C 189.52 275.77 202.72 274.31 201 281 C 199.27 287.7 194.67 288.65 193 295 M 214 276 C 214 284 214 292 214 300 C 205.05 302.83 207 293.81 207 288 C 207 282.19 205.01 273.22 214 276 M 228 276 C 228 282.33 228 288.67 228 295 C 231.98 294.46 236.61 294.65 235 300 C 230.33 300 225.67 300 221 300 C 223.31 292.22 215.08 273.87 228 276 M 260 293 C 261.48 298.59 258.58 301.41 253 300 C 253 292 253 284 253 276 C 258.61 276.62 268.19 274.03 269.97 281.03 C 271.75 288.03 268.3 295.49 260 293 M 289 276 C 291.39 283.89 293.39 291.88 295 300 C 291.87 299.91 287.7 301.07 287 297 C 282.11 296.48 280.6 302.02 275 300 C 276.61 291.92 278.6 283.89 281 276 C 283.67 276 286.33 276 289 276 M 315 292 C 316.37 294.69 317.65 297.31 319 300 C 314.82 300.38 308.91 300.64 309 295 C 308.52 299.33 305.89 301.04 301 300 C 301 292 301 284 301 276 C 312.14 272.07 324.51 282.16 315 292 M 332 289 C 334.69 284 332.16 272.92 342 276 C 341.74 284.35 338.03 291.81 337 300 C 334 300 331 300 328 300 C 326.81 291.89 323.93 284.21 323 276 C 331.99 273.2 331.55 283.02 332 289 M 363 276 C 364.98 282.21 359.78 282.69 355 282 C 353.42 287.01 358.86 286.02 362 286 C 365.17 294.13 352.96 287.76 355 295 C 359.03 294.76 364.8 294.02 363 300 C 358 300 353 300 348 300 C 348 292 348 284 348 276 C 353 276 358 276 363 276 M 377 295 C 380.98 294.46 385.61 294.65 384 300 C 378.67 300 373.33 300 368 300 C 367.06 292.72 374.44 288.42 376 282 C 371.22 283.03 367.43 281.51 369 276 C 373.52 275.77 386.72 274.31 385 281 C 383.27 287.7 378.67 288.65 377 295 Z" stroke-linecap="round"/>
</g>
		<g transform="matrix(1 0 0 1 18.3233 -83.3315)">
<path style="stroke: rgb(0,0,0); stroke-width: 1; stroke-dasharray: none; stroke-linecap: butt; stroke-dashoffset: 0; stroke-linejoin: miter; stroke-miterlimit: 4; is-custom-font: none; font-file-url: none; fill: rgb(50,156,209); fill-opacity: 0.94; fill-rule: nonzero; opacity: 1;" transform=" translate(-268.3233, -166.6685)" d="M 244 164 C 243.8 157.16 231.86 154.78 228.77 160.77 C 225.68 166.76 225.34 170.34 232 175 C 238.66 179.66 243.97 166.23 247.97 168.03 C 251.97 169.84 255.99 177.84 264 175 C 272.01 172.16 279.16 176.48 287 175 C 294.84 173.52 302.2 176.11 310 175 C 303.28 166.1 291.91 160.65 281.67 158.33 C 271.43 156.01 269.25 159.99 260 158 C 250.75 156.01 252.62 165.56 244 164 Z" stroke-linecap="round"/>
</g>
		<g transform="matrix(1 0 0 1 -25.0394 -63.5692)">
<path style="stroke: rgb(0,0,0); stroke-width: 1; stroke-dasharray: none; stroke-linecap: butt; stroke-dashoffset: 0; stroke-linejoin: miter; stroke-miterlimit: 4; is-custom-font: none; font-file-url: none; fill: rgb(121,162,196); fill-opacity: 0.91; fill-rule: nonzero; opacity: 1;" transform=" translate(-224.9606, -186.4308)" d="M 231 194 C 234.51 196.22 240.91 195 245 195 C 239.34 193.47 234.12 185.29 229 183 C 221.56 189.22 218.4 172.21 208 178 C 203.9 184.35 203.89 189.68 208 196 C 213.6 195.31 218.99 198.26 221.7 191.7 C 224.41 185.14 228.57 191.79 231 194 Z" stroke-linecap="round"/>
</g>
		<g transform="matrix(1 0 0 1 24.5 -63.0971)">
<path style="stroke: rgb(0,0,0); stroke-width: 1; stroke-dasharray: none; stroke-linecap: butt; stroke-dashoffset: 0; stroke-linejoin: miter; stroke-miterlimit: 4; is-custom-font: none; font-file-url: none; fill: rgb(67,157,206); fill-opacity: 0.96; fill-rule: nonzero; opacity: 1;" transform=" translate(-274.5, -186.903)" d="M 229 183 C 234.12 185.29 239.34 193.47 245 195 C 269.83 195 295.99 194.17 320 196 C 319.83 186.62 314.84 176.28 303 178 C 291.16 179.72 278.92 177.1 267 178 C 255.08 178.9 242.94 177.33 231 178 C 230.64 179.54 230.19 181.81 229 183 Z" stroke-linecap="round"/>
</g>
		<g transform="matrix(1 0 0 1 25.5 -54.3882)">
<path style="stroke: rgb(0,0,0); stroke-width: 1; stroke-dasharray: none; stroke-linecap: butt; stroke-dashoffset: 0; stroke-linejoin: miter; stroke-miterlimit: 4; is-custom-font: none; font-file-url: none; fill: rgb(82,158,203); fill-opacity: 0.5; fill-rule: nonzero; opacity: 1;" transform=" translate(-275.5, -195.6118)" d="M 320 196 C 295.99 194.17 269.83 195 245 195 C 240.91 195 234.51 196.22 231 194 C 235.28 197.88 245.11 195.79 252 196 C 258.89 196.21 268.08 196.42 275 196 C 281.92 195.58 291.54 197.34 298 196 C 304.46 194.66 314.82 199.33 320 196 Z" stroke-linecap="round"/>
</g>
		<g transform="matrix(1 0 0 1 -62.6131 -42.5251)">
<path style="stroke: rgb(0,0,0); stroke-width: 1; stroke-dasharray: none; stroke-linecap: butt; stroke-dashoffset: 0; stroke-linejoin: miter; stroke-miterlimit: 4; is-custom-font: none; font-file-url: none; fill: rgb(180,167,186); fill-opacity: 0.93; fill-rule: nonzero; opacity: 1;" transform=" translate(-187.3869, -207.4749)" d="M 177 208 C 178.32 218.75 198.09 219.07 197.77 207.23 C 197.45 195.39 177.4 196.54 177 208 Z" stroke-linecap="round"/>
</g>
		<g transform="matrix(1 0 0 1 -8.5068 -42.525)">
<path style="stroke: rgb(0,0,0); stroke-width: 1; stroke-dasharray: none; stroke-linecap: butt; stroke-dashoffset: 0; stroke-linejoin: miter; stroke-miterlimit: 4; is-custom-font: none; font-file-url: none; fill: rgb(135,163,194); fill-opacity: 0.96; fill-rule: nonzero; opacity: 1;" transform=" translate(-241.4932, -207.475)" d="M 269 216 C 263.11 214.14 258.77 205.71 252 205 C 245.55 206.64 241.19 196.68 233 199 C 224.81 201.32 214.59 195.46 214.01 206.99 C 213.42 218.52 224.03 214.53 232 216 C 239.97 217.47 245.23 211.04 252 210 C 252.69 218.34 263.01 216 269 216 Z" stroke-linecap="round"/>
</g>
		<g transform="matrix(1 0 0 1 37 -42.5349)">
<path style="stroke: rgb(0,0,0); stroke-width: 1; stroke-dasharray: none; stroke-linecap: butt; stroke-dashoffset: 0; stroke-linejoin: miter; stroke-miterlimit: 4; is-custom-font: none; font-file-url: none; fill: rgb(81,158,204); fill-opacity: 0.97; fill-rule: nonzero; opacity: 1;" transform=" translate(-287, -207.4651)" d="M 252 205 C 258.77 205.71 263.11 214.14 269 216 C 286.67 216 304.33 216 322 216 C 322 210.33 322 204.67 322 199 C 315.35 198.9 313.09 199.14 306 199 C 298.91 198.86 300.01 199.28 291 199 C 281.99 198.72 270.12 199.4 261 199 C 251.88 198.6 256.91 201.47 252 205 Z" stroke-linecap="round"/>
</g>
		<g transform="matrix(1 0 0 1 -31.4602 -21.9902)">
<path style="stroke: rgb(0,0,0); stroke-width: 1; stroke-dasharray: none; stroke-linecap: butt; stroke-dashoffset: 0; stroke-linejoin: miter; stroke-miterlimit: 4; is-custom-font: none; font-file-url: none; fill: rgb(185,167,185); fill-opacity: 0.88; fill-rule: nonzero; opacity: 1;" transform=" translate(-218.5398, -228.0099)" d="M 229 236 C 230.7 236.68 234.14 236 236 236 C 231.79 234.86 228.81 228.34 224 228 C 223.98 227.03 227.01 226.78 225 226 C 223.33 226 221.67 226 220 226 C 220 223.3 216.75 221.83 217 219 C 210.82 217.22 201.14 220.38 201.08 227.92 C 201.01 235.47 210.78 238.87 217 237 C 217.85 233.72 219.27 230.13 222.97 230.03 C 226.67 229.93 226.68 234.52 229 236 Z" stroke-linecap="round"/>
</g>
		<g transform="matrix(1 0 0 1 24 -30.5716)">
<path style="stroke: rgb(0,0,0); stroke-width: 1; stroke-dasharray: none; stroke-linecap: butt; stroke-dashoffset: 0; stroke-linejoin: miter; stroke-miterlimit: 4; is-custom-font: none; font-file-url: none; fill: rgb(115,162,197); fill-opacity: 0.24; fill-rule: nonzero; opacity: 1;" transform=" translate(-274, -219.4284)" d="M 228 221 C 233.43 217.38 247.47 220 254 220 C 275.83 220 298.99 220.83 320 219 C 315.38 216.03 307.02 219.89 301 219 C 294.98 218.11 289.2 218.41 282 219 C 274.8 219.59 271.97 216.54 263 219 C 254.03 221.46 235.02 214.44 228 221 Z" stroke-linecap="round"/>
</g>
		<g transform="matrix(1 0 0 1 37.2734 -22)">
<path style="stroke: rgb(0,0,0); stroke-width: 1; stroke-dasharray: none; stroke-linecap: butt; stroke-dashoffset: 0; stroke-linejoin: miter; stroke-miterlimit: 4; is-custom-font: none; font-file-url: none; fill: rgb(108,161,199); fill-opacity: 0.98; fill-rule: nonzero; opacity: 1;" transform=" translate(-287.2734, -228)" d="M 254 220 C 261.66 222.42 268.17 233.88 276 236 C 287.83 236 300.99 235.17 312 237 C 315.2 235.88 322.61 220.68 320 219 C 298.99 220.83 275.83 220 254 220 Z" stroke-linecap="round"/>
</g>
		<g transform="matrix(1 0 0 1 -0.0001 -22.4582)">
<path style="stroke: rgb(0,0,0); stroke-width: 1; stroke-dasharray: none; stroke-linecap: butt; stroke-dashoffset: 0; stroke-linejoin: miter; stroke-miterlimit: 4; is-custom-font: none; font-file-url: none; fill: rgb(152,165,191); fill-rule: nonzero; opacity: 1;" transform=" translate(-250, -227.5418)" d="M 228 221 C 227.16 221.79 225.43 224.84 225 226 C 227.01 226.78 223.98 227.03 224 228 C 228.81 228.34 231.79 234.86 236 236 C 246.33 236 256.67 236 267 236 C 270 236 273 236 276 236 C 268.17 233.88 261.66 222.42 254 220 C 247.47 220 233.43 217.38 228 221 Z" stroke-linecap="round"/>
</g>
		<g transform="matrix(1 0 0 1 -2 -13.2672)">
<path style="stroke: rgb(0,0,0); stroke-width: 1; stroke-dasharray: none; stroke-linecap: butt; stroke-dashoffset: 0; stroke-linejoin: miter; stroke-miterlimit: 4; is-custom-font: none; font-file-url: none; fill: rgb(162,165,189); fill-opacity: 0.5; fill-rule: nonzero; opacity: 1;" transform=" translate(-248, -236.7328)" d="M 267 237 C 266.96 237 267 236 267 236 C 256.67 236 246.33 236 236 236 C 234.14 236 230.7 236.68 229 236 C 233.66 238.98 242.16 236.39 248 237 C 253.84 237.61 261.03 237 267 237 Z" stroke-linecap="round"/>
</g>
		<g transform="matrix(1 0 0 1 39.4911 -13.163)">
<path style="stroke: rgb(0,0,0); stroke-width: 1; stroke-dasharray: none; stroke-linecap: butt; stroke-dashoffset: 0; stroke-linejoin: miter; stroke-miterlimit: 4; is-custom-font: none; font-file-url: none; fill: rgb(123,162,196); fill-opacity: 0.5; fill-rule: nonzero; opacity: 1;" transform=" translate(-289.4911, -236.837)" d="M 267 237 C 274.19 237 282.96 237.8 290 237 C 297.04 236.2 305.48 239.29 312 237 C 300.99 235.17 287.83 236 276 236 C 273 236 270 236 267 236 C 267 236 266.96 237 267 237 Z" stroke-linecap="round"/>
</g>
		<g transform="matrix(1 0 0 1 -45 -1.3923)">
<path style="stroke: rgb(0,0,0); stroke-width: 1; stroke-dasharray: none; stroke-linecap: butt; stroke-dashoffset: 0; stroke-linejoin: miter; stroke-miterlimit: 4; is-custom-font: none; font-file-url: none; fill: rgb(228,171,178); fill-opacity: 0.95; fill-rule: nonzero; opacity: 1;" transform=" translate(-205, -248.6077)" d="M 232 257 C 229.73 256.39 218.36 248.55 218 246 C 210.8 246.25 206.81 238.14 197 240 C 187.19 241.86 179.86 237.76 178 250 C 180.14 254.16 184.89 258.56 190 257 C 195.11 255.44 203.96 258.76 207.92 256.92 C 211.87 255.07 214.21 246.81 218.25 252.75 C 222.28 258.7 225.45 257 232 257 Z" stroke-linecap="round"/>
</g>
		<g transform="matrix(1 0 0 1 -12.5 -1.5)">
<path style="stroke: rgb(0,0,0); stroke-width: 1; stroke-dasharray: none; stroke-linecap: butt; stroke-dashoffset: 0; stroke-linejoin: miter; stroke-miterlimit: 4; is-custom-font: none; font-file-url: none; fill: rgb(194,168,184); fill-opacity: 0.99; fill-rule: nonzero; opacity: 1;" transform=" translate(-237.5, -248.5)" d="M 218 246 C 218.36 248.55 229.73 256.39 232 257 C 240.33 257 248.67 257 257 257 C 249.38 254.59 242.88 243.14 235 241 C 230.83 241 225.34 241.82 222 240 C 219.34 240.93 219.62 244.84 218 246 Z" stroke-linecap="round"/>
</g>
		<g transform="matrix(1 0 0 1 -13 -10.0168)">
<path style="stroke: rgb(0,0,0); stroke-width: 1; stroke-dasharray: none; stroke-linecap: butt; stroke-dashoffset: 0; stroke-linejoin: miter; stroke-miterlimit: 4; is-custom-font: none; font-file-url: none; fill: rgb(179,167,187); fill-opacity: 0.75; fill-rule: nonzero; opacity: 1;" transform=" translate(-237, -239.9832)" d="M 235 241 C 240.67 241 246.33 241 252 241 C 251.9 240.98 252 240 252 240 C 243.65 240 229.8 237.26 222 240 C 225.34 241.82 230.83 241 235 241 Z" stroke-linecap="round"/>
</g>
		<g transform="matrix(1 0 0 1 30.4778 -9.1306)">
<path style="stroke: rgb(0,0,0); stroke-width: 1; stroke-dasharray: none; stroke-linecap: butt; stroke-dashoffset: 0; stroke-linejoin: miter; stroke-miterlimit: 4; is-custom-font: none; font-file-url: none; fill: rgb(137,163,194); fill-opacity: 0.74; fill-rule: nonzero; opacity: 1;" transform=" translate(-280.4778, -240.8694)" d="M 252 241 C 254 241 256 241 258 241 C 266.08 241 275.01 241.98 283 241 C 290.99 240.02 301.41 243.48 309 241 C 308.96 238.96 296.78 240.25 292 240 C 287.22 239.75 277.68 240.09 272 240 C 266.32 239.91 257.93 240 252 240 C 252 240 251.9 240.98 252 241 Z" stroke-linecap="round"/>
</g>
		<g transform="matrix(1 0 0 1 6.5 -0.8956)">
<path style="stroke: rgb(0,0,0); stroke-width: 1; stroke-dasharray: none; stroke-linecap: butt; stroke-dashoffset: 0; stroke-linejoin: miter; stroke-miterlimit: 4; is-custom-font: none; font-file-url: none; fill: rgb(171,166,188); fill-rule: nonzero; opacity: 1;" transform=" translate(-256.5, -249.1044)" d="M 257 257 C 263.94 257 271.07 257.47 278 257 C 273 252.96 264.78 242.91 258 241 C 256 241 254 241 252 241 C 246.33 241 240.67 241 235 241 C 242.88 243.14 249.38 254.59 257 257 Z" stroke-linecap="round"/>
</g>
		<g transform="matrix(1 0 0 1 33.5003 -1.09)">
<path style="stroke: rgb(0,0,0); stroke-width: 1; stroke-dasharray: none; stroke-linecap: butt; stroke-dashoffset: 0; stroke-linejoin: miter; stroke-miterlimit: 4; is-custom-font: none; font-file-url: none; fill: rgb(142,164,193); fill-opacity: 0.96; fill-rule: nonzero; opacity: 1;" transform=" translate(-283.5003, -248.9101)" d="M 278 257 C 282.67 256.68 293.05 254.17 296.3 251.3 C 299.56 248.43 309.09 245.53 309 241 C 301.41 243.48 290.99 240.02 283 241 C 275.01 241.98 266.08 241 258 241 C 264.78 242.91 273 252.96 278 257 Z" stroke-linecap="round"/>
</g>
		<g transform="matrix(1 0 0 1 -126.9357 38.1965)">
<path style="stroke: rgb(0,0,0); stroke-width: 1; stroke-dasharray: none; stroke-linecap: butt; stroke-dashoffset: 0; stroke-linejoin: miter; stroke-miterlimit: 4; is-custom-font: none; font-file-url: none; fill: rgb(216,216,216); fill-opacity: 0.84; fill-rule: nonzero; opacity: 1;" transform=" translate(-123.0643, -288.1965)" d="M 131 276 C 125.67 276 120.33 276 115 276 C 114.72 279.07 114.56 283.46 119 282 C 120.36 288.54 114.61 302.95 126 300 C 126 294 126 288 126 282 C 130.64 283.33 131.84 279.93 131 276 Z" stroke-linecap="round"/>
</g>
		<g transform="matrix(1 0 0 1 -105 38.0798)">
<path style="stroke: rgb(0,0,0); stroke-width: 1; stroke-dasharray: none; stroke-linecap: butt; stroke-dashoffset: 0; stroke-linejoin: miter; stroke-miterlimit: 4; is-custom-font: none; font-file-url: none; fill: rgb(211,211,211); fill-opacity: 0.84; fill-rule: nonzero; opacity: 1;" transform=" translate(-145, -288.0798)" d="M 155 300 C 151.85 291.53 154.67 273.21 141 276 C 139 284.02 137 292.01 135 300 C 140.48 301.96 142.53 296.81 147 297 C 148 300.59 151.47 300.21 155 300 Z" stroke-linecap="round"/>
</g>
		<g transform="matrix(1 0 0 1 -80.5 37.9924)">
<path style="stroke: rgb(0,0,0); stroke-width: 1; stroke-dasharray: none; stroke-linecap: butt; stroke-dashoffset: 0; stroke-linejoin: miter; stroke-miterlimit: 4; is-custom-font: none; font-file-url: none; fill: rgb(217,217,217); fill-opacity: 0.84; fill-rule: nonzero; opacity: 1;" transform=" translate(-169.5, -287.9924)" d="M 170 284 C 169.49 279.22 166.84 274.17 161 276 C 161 284 161 292 161 300 C 167.56 301.92 168.12 297.52 169 293 C 169.75 297.98 172.32 301.64 178 300 C 178 292 178 284 178 276 C 171.14 273.77 171.04 279.85 170 284 Z" stroke-linecap="round"/>
</g>
		<g transform="matrix(1 0 0 1 -57.4644 37.8537)">
<path style="stroke: rgb(0,0,0); stroke-width: 1; stroke-dasharray: none; stroke-linecap: butt; stroke-dashoffset: 0; stroke-linejoin: miter; stroke-miterlimit: 4; is-custom-font: none; font-file-url: none; fill: rgb(216,216,216); fill-opacity: 0.81; fill-rule: nonzero; opacity: 1;" transform=" translate(-192.5356, -287.8537)" d="M 193 295 C 194.67 288.65 199.27 287.7 201 281 C 202.72 274.31 189.52 275.77 185 276 C 183.43 281.51 187.22 283.03 192 282 C 190.44 288.42 183.06 292.72 184 300 C 189.33 300 194.67 300 200 300 C 201.61 294.65 196.98 294.46 193 295 Z" stroke-linecap="round"/>
</g>
		<g transform="matrix(1 0 0 1 -39.5937 38.0073)">
<path style="stroke: rgb(0,0,0); stroke-width: 1; stroke-dasharray: none; stroke-linecap: butt; stroke-dashoffset: 0; stroke-linejoin: miter; stroke-miterlimit: 4; is-custom-font: none; font-file-url: none; fill: rgb(216,216,216); fill-opacity: 0.87; fill-rule: nonzero; opacity: 1;" transform=" translate(-210.4063, -288.0074)" d="M 214 276 C 205.01 273.22 207 282.19 207 288 C 207 293.81 205.05 302.83 214 300 C 214 292 214 284 214 276 Z" stroke-linecap="round"/>
</g>
		<g transform="matrix(1 0 0 1 -22.0816 37.9146)">
<path style="stroke: rgb(0,0,0); stroke-width: 1; stroke-dasharray: none; stroke-linecap: butt; stroke-dashoffset: 0; stroke-linejoin: miter; stroke-miterlimit: 4; is-custom-font: none; font-file-url: none; fill: rgb(217,217,217); fill-opacity: 0.88; fill-rule: nonzero; opacity: 1;" transform=" translate(-227.9184, -287.9146)" d="M 228 276 C 215.08 273.87 223.31 292.22 221 300 C 225.67 300 230.33 300 235 300 C 236.61 294.65 231.98 294.46 228 295 C 228 288.67 228 282.33 228 276 Z" stroke-linecap="round"/>
</g>
		<g transform="matrix(1 0 0 1 11.7131 38.1798)">
<path style="stroke: rgb(0,0,0); stroke-width: 1; stroke-dasharray: none; stroke-linecap: butt; stroke-dashoffset: 0; stroke-linejoin: miter; stroke-miterlimit: 4; is-custom-font: none; font-file-url: none; fill: rgb(216,216,216); fill-opacity: 0.87; fill-rule: nonzero; opacity: 1;" transform=" translate(-261.7131, -288.1798)" d="M 260 293 C 268.3 295.49 271.75 288.03 269.97 281.03 C 268.19 274.03 258.61 276.62 253 276 C 253 284 253 292 253 300 C 258.58 301.41 261.48 298.59 260 293 M 263 282 C 263.16 284.31 263.45 288.34 260 288 C 260.12 285.54 258.92 281.02 263 282 Z" stroke-linecap="round"/>
</g>
		<g transform="matrix(1 0 0 1 35 38.2226)">
<path style="stroke: rgb(0,0,0); stroke-width: 1; stroke-dasharray: none; stroke-linecap: butt; stroke-dashoffset: 0; stroke-linejoin: miter; stroke-miterlimit: 4; is-custom-font: none; font-file-url: none; fill: rgb(211,211,211); fill-opacity: 0.84; fill-rule: nonzero; opacity: 1;" transform=" translate(-285, -288.2226)" d="M 289 276 C 286.33 276 283.67 276 281 276 C 278.6 283.89 276.61 291.92 275 300 C 280.6 302.02 282.11 296.48 287 297 C 287.7 301.07 291.87 299.91 295 300 C 293.39 291.88 291.39 283.89 289 276 M 286 284 C 287.56 290.97 280.73 285.19 286 284 Z" stroke-linecap="round"/>
</g>
		<g transform="matrix(1 0 0 1 60 37.7128)">
<path style="stroke: rgb(0,0,0); stroke-width: 1; stroke-dasharray: none; stroke-linecap: butt; stroke-dashoffset: 0; stroke-linejoin: miter; stroke-miterlimit: 4; is-custom-font: none; font-file-url: none; fill: rgb(216,216,216); fill-opacity: 0.87; fill-rule: nonzero; opacity: 1;" transform=" translate(-310, -287.7127)" d="M 315 292 C 324.51 282.16 312.14 272.07 301 276 C 301 284 301 292 301 300 C 305.89 301.04 308.52 299.33 309 295 C 308.91 300.64 314.82 300.38 319 300 C 317.65 297.31 316.37 294.69 315 292 M 310 282 C 310.3 282.75 310.31 286.26 310 287 C 309.46 288.27 308.17 287.87 307 288 C 306.58 285.9 306.88 279.15 310 282 Z" stroke-linecap="round"/>
</g>
		<g transform="matrix(1 0 0 1 82.5 37.734)">
<path style="stroke: rgb(0,0,0); stroke-width: 1; stroke-dasharray: none; stroke-linecap: butt; stroke-dashoffset: 0; stroke-linejoin: miter; stroke-miterlimit: 4; is-custom-font: none; font-file-url: none; fill: rgb(216,216,216); fill-opacity: 0.83; fill-rule: nonzero; opacity: 1;" transform=" translate(-332.5, -287.7339)" d="M 332 289 C 331.55 283.02 331.99 273.2 323 276 C 323.93 284.21 326.81 291.89 328 300 C 331 300 334 300 337 300 C 338.03 291.81 341.74 284.35 342 276 C 332.16 272.92 334.69 284 332 289 Z" stroke-linecap="round"/>
</g>
		<g transform="matrix(1 0 0 1 105.716 38)">
<path style="stroke: rgb(0,0,0); stroke-width: 1; stroke-dasharray: none; stroke-linecap: butt; stroke-dashoffset: 0; stroke-linejoin: miter; stroke-miterlimit: 4; is-custom-font: none; font-file-url: none; fill: rgb(216,216,216); fill-opacity: 0.84; fill-rule: nonzero; opacity: 1;" transform=" translate(-355.716, -288)" d="M 363 276 C 358 276 353 276 348 276 C 348 284 348 292 348 300 C 353 300 358 300 363 300 C 364.8 294.02 359.03 294.76 355 295 C 352.96 287.76 365.17 294.13 362 286 C 358.86 286.02 353.42 287.01 355 282 C 359.78 282.69 364.98 282.21 363 276 Z" stroke-linecap="round"/>
</g>
		<g transform="matrix(1 0 0 1 126.5356 37.8537)">
<path style="stroke: rgb(0,0,0); stroke-width: 1; stroke-dasharray: none; stroke-linecap: butt; stroke-dashoffset: 0; stroke-linejoin: miter; stroke-miterlimit: 4; is-custom-font: none; font-file-url: none; fill: rgb(216,216,216); fill-opacity: 0.81; fill-rule: nonzero; opacity: 1;" transform=" translate(-376.5356, -287.8537)" d="M 377 295 C 378.67 288.65 383.27 287.7 385 281 C 386.72 274.31 373.52 275.77 369 276 C 367.43 281.51 371.22 283.03 376 282 C 374.44 288.42 367.06 292.72 368 300 C 373.33 300 378.67 300 384 300 C 385.61 294.65 380.98 294.46 377 295 Z" stroke-linecap="round"/>
</g>
		<g transform="matrix(1 0 0 1 58.4248 34.6544)">
<path style="stroke: rgb(0,0,0); stroke-width: 1; stroke-dasharray: none; stroke-linecap: butt; stroke-dashoffset: 0; stroke-linejoin: miter; stroke-miterlimit: 4; is-custom-font: none; font-file-url: none; fill: rgb(216,216,216); fill-opacity: 0.52; fill-rule: nonzero; opacity: 1;" transform=" translate(-308.4249, -284.6544)" d="M 310 287 C 307.18 287.75 306.99 281.28 310 282 C 306.88 279.15 306.58 285.9 307 288 C 308.17 287.87 309.46 288.27 310 287 Z" stroke-linecap="round"/>
</g>
		<g transform="matrix(1 0 0 1 11.5041 34.9416)">
<path style="stroke: rgb(0,0,0); stroke-width: 1; stroke-dasharray: none; stroke-linecap: butt; stroke-dashoffset: 0; stroke-linejoin: miter; stroke-miterlimit: 4; is-custom-font: none; font-file-url: none; fill: rgb(255,0,0); fill-opacity: 0; fill-rule: nonzero; opacity: 1;" transform=" translate(-261.504, -284.9417)" d="M 263 282 C 258.92 281.02 260.12 285.54 260 288 C 263.45 288.34 263.16 284.31 263 282 Z" stroke-linecap="round"/>
</g>
		<g transform="matrix(1 0 0 1 59.021 34.5023)">
<path style="stroke: rgb(0,0,0); stroke-width: 1; stroke-dasharray: none; stroke-linecap: butt; stroke-dashoffset: 0; stroke-linejoin: miter; stroke-miterlimit: 4; is-custom-font: none; font-file-url: none; fill: rgb(255,0,0); fill-opacity: 0; fill-rule: nonzero; opacity: 1;" transform=" translate(-309.021, -284.5023)" d="M 310 287 C 310.31 286.26 310.3 282.75 310 282 C 306.99 281.28 307.18 287.75 310 287 Z" stroke-linecap="round"/>
</g>
		<g transform="matrix(1 0 0 1 35.1029 35.6898)">
<path style="stroke: rgb(0,0,0); stroke-width: 1; stroke-dasharray: none; stroke-linecap: butt; stroke-dashoffset: 0; stroke-linejoin: miter; stroke-miterlimit: 4; is-custom-font: none; font-file-url: none; fill: rgb(217,217,217); fill-opacity: 0.56; fill-rule: nonzero; opacity: 1;" transform=" translate(-285.1029, -285.6898)" d="M 286 284 C 280.73 285.19 287.56 290.97 286 284 Z" stroke-linecap="round"/>
</g>
</g>
</g>
</svg>